# Blender v3.2.2 OBJ File: ''
# www.blender.org
mtllib ItemBox.mtl
o ItemBox_Mat_ItemBox
v 0.515000 0.001531 0.515000
v -0.515000 0.001531 0.515000
v -0.515000 0.001531 -0.515000
v -0.515000 1.031531 -0.515000
v -0.515000 1.031531 0.515000
v 0.515000 1.031531 0.515000
v 0.515000 1.031531 -0.515000
v 0.515000 0.001531 -0.515000
vt 1.000000 0.000000
vt 1.000000 1.000000
vt 0.000000 1.000000
vt 1.000000 0.000000
vt 1.000000 1.000000
vt 0.000000 1.000000
vt 1.000000 0.000000
vt 1.000000 1.000000
vt 0.000000 1.000000
vt 1.000000 0.000000
vt 0.000000 1.000000
vt 1.000000 0.000000
vt 0.000000 1.000000
vt 1.000000 0.000000
vt 1.000000 1.000000
vt 0.000000 0.000000
vt 1.000000 0.000000
vt 0.000000 0.000000
vt 0.000000 1.000000
vt 0.000000 0.000000
vt 0.000000 0.000000
vt 0.000000 1.000000
vn 0.0000 -1.0000 -0.0000
vn 0.0000 1.0000 0.0000
vn 1.0000 0.0000 0.0000
vn 0.0000 -0.0000 1.0000
vn -1.0000 0.0000 0.0000
vn 0.0000 0.0000 -1.0000
usemtl mt_box
s 1
f 1/1/1 2/2/1 3/3/1
f 4/4/2 5/5/2 6/6/2
f 7/7/3 6/8/3 1/9/3
f 6/10/4 5/5/4 2/11/4
f 2/12/5 5/5/5 4/13/5
f 8/14/6 3/15/6 4/13/6
f 8/16/1 1/9/1 3/17/1
f 7/18/2 4/13/2 6/10/2
f 8/16/3 7/19/3 1/1/3
f 1/20/4 6/6/4 2/12/4
f 3/21/5 2/11/5 4/4/5
f 7/18/6 8/22/6 4/4/6
